<mxfile host="app.diagrams.net" modified="2022-02-21T05:40:27.092Z" agent="5.0 (Windows NT 10.0; Win64; x64) AppleWebKit/537.36 (KHTML, like Gecko) Chrome/98.0.4758.102 Safari/537.36" etag="3Km0O907NknVCQKS6ZIE" version="16.5.6" type="github">
  <diagram id="07fea595-8f29-1299-0266-81d95cde20df" name="Page-1">
    <mxGraphModel dx="1328" dy="1081" grid="0" gridSize="10" guides="1" tooltips="1" connect="1" arrows="1" fold="1" page="0" pageScale="1" pageWidth="1169" pageHeight="827" background="none" math="0" shadow="0">
      <root>
        <mxCell id="0" />
        <mxCell id="1" parent="0" />
        <mxCell id="D77NU6fG_84EsV_j1okC-218" value="" style="verticalLabelPosition=bottom;verticalAlign=top;html=1;shape=mxgraph.basic.partConcEllipse;startAngle=0.25;endAngle=0.75;arcWidth=0.25;fillColor=#10739E;strokeColor=none;" vertex="1" parent="1">
          <mxGeometry x="90" y="490" width="120" height="120" as="geometry" />
        </mxCell>
        <mxCell id="D77NU6fG_84EsV_j1okC-219" value="" style="verticalLabelPosition=bottom;verticalAlign=top;html=1;shape=mxgraph.basic.partConcEllipse;startAngle=0.75;endAngle=0.25;arcWidth=0.25;fillColor=#F2931E;strokeColor=none;" vertex="1" parent="1">
          <mxGeometry x="195" y="490" width="120" height="120" as="geometry" />
        </mxCell>
        <mxCell id="D77NU6fG_84EsV_j1okC-220" value="" style="verticalLabelPosition=bottom;verticalAlign=top;html=1;shape=mxgraph.basic.partConcEllipse;startAngle=0.25;endAngle=0.75;arcWidth=0.25;fillColor=#AE4132;strokeColor=none;" vertex="1" parent="1">
          <mxGeometry x="300" y="490" width="120" height="120" as="geometry" />
        </mxCell>
        <mxCell id="D77NU6fG_84EsV_j1okC-221" value="" style="verticalLabelPosition=bottom;verticalAlign=top;html=1;shape=mxgraph.basic.partConcEllipse;startAngle=0.75;endAngle=0.25;arcWidth=0.25;fillColor=#23445D;strokeColor=none;" vertex="1" parent="1">
          <mxGeometry x="405" y="490" width="120" height="120" as="geometry" />
        </mxCell>
        <mxCell id="D77NU6fG_84EsV_j1okC-222" value="" style="verticalLabelPosition=bottom;verticalAlign=top;html=1;shape=mxgraph.basic.partConcEllipse;startAngle=0.25;endAngle=0.75;arcWidth=0.25;fillColor=#15AA96;strokeColor=none;" vertex="1" parent="1">
          <mxGeometry x="510" y="490" width="120" height="120" as="geometry" />
        </mxCell>
        <mxCell id="D77NU6fG_84EsV_j1okC-223" value="1" style="shape=ellipse;strokeWidth=6;strokeColor=#10739E;fontSize=15;html=0;fontStyle=1;fontColor=#10739E;" vertex="1" parent="1">
          <mxGeometry x="125" y="525" width="50" height="50" as="geometry" />
        </mxCell>
        <mxCell id="D77NU6fG_84EsV_j1okC-224" value="2" style="shape=ellipse;strokeWidth=6;strokeColor=#F2931E;fontSize=15;html=0;fontStyle=1;fontColor=#F2931E;" vertex="1" parent="1">
          <mxGeometry x="230" y="525" width="50" height="50" as="geometry" />
        </mxCell>
        <mxCell id="D77NU6fG_84EsV_j1okC-225" value="3" style="shape=ellipse;strokeWidth=6;strokeColor=#AE4132;fontSize=15;html=0;fontStyle=1;fontColor=#AE4132;" vertex="1" parent="1">
          <mxGeometry x="335" y="525" width="50" height="50" as="geometry" />
        </mxCell>
        <mxCell id="D77NU6fG_84EsV_j1okC-226" value="4" style="shape=ellipse;strokeWidth=6;strokeColor=#23445D;fontSize=15;html=0;fontStyle=1;fontColor=#23445D;" vertex="1" parent="1">
          <mxGeometry x="440" y="525" width="50" height="50" as="geometry" />
        </mxCell>
        <mxCell id="D77NU6fG_84EsV_j1okC-227" value="5" style="shape=ellipse;strokeWidth=6;strokeColor=#12AAB5;fontSize=15;html=0;fontStyle=1;fontColor=#12AAB5;" vertex="1" parent="1">
          <mxGeometry x="545" y="525" width="50" height="50" as="geometry" />
        </mxCell>
        <mxCell id="D77NU6fG_84EsV_j1okC-228" value="&lt;font color=&quot;#10739e&quot;&gt;&lt;b&gt;Data preparation&lt;/b&gt;&lt;br&gt;&lt;br&gt;&lt;b&gt;Collect ecological environment data from various places and make ARIMA predictions&lt;/b&gt;&lt;br&gt;&lt;/font&gt;" style="rounded=1;strokeColor=none;fillColor=#EEEEEE;align=center;arcSize=12;verticalAlign=top;whiteSpace=wrap;html=1;fontSize=12;" vertex="1" parent="1">
          <mxGeometry x="90" y="620" width="120" height="120" as="geometry" />
        </mxCell>
        <mxCell id="D77NU6fG_84EsV_j1okC-229" value="&lt;font&gt;&lt;font color=&quot;#f2931e&quot;&gt;&lt;b&gt;Carbon Sequestration Model&lt;/b&gt;&lt;/font&gt;&lt;br&gt;&lt;br&gt;&lt;br&gt;&lt;/font&gt;" style="rounded=1;strokeColor=none;fillColor=#EEEEEE;align=center;arcSize=12;verticalAlign=top;whiteSpace=wrap;html=1;fontSize=12;" vertex="1" parent="1">
          <mxGeometry x="195" y="370" width="125" height="110" as="geometry" />
        </mxCell>
        <mxCell id="D77NU6fG_84EsV_j1okC-230" value="&lt;font style=&quot;font-size: 10px&quot;&gt;&lt;font style=&quot;font-size: 12px&quot; color=&quot;#AE4132&quot;&gt;&lt;b&gt;Label&lt;/b&gt;&lt;/font&gt;&lt;br&gt;&lt;br&gt;&lt;font size=&quot;1&quot;&gt;Lorem ipsum dolor sit amet, consectetur adipisicing elit&lt;/font&gt;&lt;/font&gt;" style="rounded=1;strokeColor=none;fillColor=#EEEEEE;align=center;arcSize=12;verticalAlign=top;whiteSpace=wrap;html=1;fontSize=12;" vertex="1" parent="1">
          <mxGeometry x="300" y="620" width="120" height="80" as="geometry" />
        </mxCell>
        <mxCell id="D77NU6fG_84EsV_j1okC-231" value="&lt;font style=&quot;font-size: 10px&quot;&gt;&lt;font style=&quot;font-size: 12px&quot; color=&quot;#23445D&quot;&gt;&lt;b&gt;Label&lt;/b&gt;&lt;/font&gt;&lt;br&gt;&lt;br&gt;&lt;font size=&quot;1&quot;&gt;Lorem ipsum dolor sit amet, consectetur adipisicing elit&lt;/font&gt;&lt;/font&gt;" style="rounded=1;strokeColor=none;fillColor=#EEEEEE;align=center;arcSize=12;verticalAlign=top;whiteSpace=wrap;html=1;fontSize=12;" vertex="1" parent="1">
          <mxGeometry x="405" y="400" width="120" height="80" as="geometry" />
        </mxCell>
        <mxCell id="D77NU6fG_84EsV_j1okC-232" value="&lt;font style=&quot;font-size: 10px&quot;&gt;&lt;font style=&quot;font-size: 12px&quot; color=&quot;#12AAB5&quot;&gt;&lt;b&gt;Label&lt;/b&gt;&lt;/font&gt;&lt;br&gt;&lt;br&gt;&lt;font size=&quot;1&quot;&gt;Lorem ipsum dolor sit amet, consectetur adipisicing elit&lt;/font&gt;&lt;/font&gt;" style="rounded=1;strokeColor=none;fillColor=#EEEEEE;align=center;arcSize=12;verticalAlign=top;whiteSpace=wrap;html=1;fontSize=12;" vertex="1" parent="1">
          <mxGeometry x="510" y="620" width="120" height="80" as="geometry" />
        </mxCell>
        <mxCell id="D77NU6fG_84EsV_j1okC-295" value="&lt;b&gt;&lt;font style=&quot;font-size: 17px&quot;&gt;Data Preparation&lt;/font&gt;&lt;/b&gt;" style="shape=step;perimeter=stepPerimeter;whiteSpace=wrap;html=1;fixedSize=1;size=10;fillColor=#10739E;strokeColor=none;fontSize=17;fontColor=#FFFFFF;fontStyle=1;align=center;rounded=0;" vertex="1" parent="1">
          <mxGeometry x="1540" y="-220" width="200" height="60" as="geometry" />
        </mxCell>
        <mxCell id="D77NU6fG_84EsV_j1okC-296" value="Carbon Sequestration Model" style="shape=step;perimeter=stepPerimeter;whiteSpace=wrap;html=1;fixedSize=1;size=10;fillColor=#F2931E;strokeColor=none;fontSize=17;fontColor=#FFFFFF;fontStyle=1;align=center;rounded=0;" vertex="1" parent="1">
          <mxGeometry x="1740" y="-220" width="200" height="60" as="geometry" />
        </mxCell>
        <mxCell id="D77NU6fG_84EsV_j1okC-297" value="Forest Plan&lt;br&gt;Model" style="shape=step;perimeter=stepPerimeter;whiteSpace=wrap;html=1;fixedSize=1;size=10;fillColor=#AE4132;strokeColor=none;fontSize=17;fontColor=#FFFFFF;fontStyle=1;align=center;rounded=0;" vertex="1" parent="1">
          <mxGeometry x="1940" y="-220" width="200" height="60" as="geometry" />
        </mxCell>
        <mxCell id="D77NU6fG_84EsV_j1okC-298" value="Forest Decision&lt;br&gt;Model" style="shape=step;perimeter=stepPerimeter;whiteSpace=wrap;html=1;fixedSize=1;size=10;fillColor=#23445D;strokeColor=none;fontSize=17;fontColor=#FFFFFF;fontStyle=1;align=center;rounded=0;" vertex="1" parent="1">
          <mxGeometry x="2140" y="-220" width="200" height="60" as="geometry" />
        </mxCell>
        <mxCell id="D77NU6fG_84EsV_j1okC-299" value="Results and Analysis" style="shape=step;perimeter=stepPerimeter;whiteSpace=wrap;html=1;fixedSize=1;size=10;fillColor=#12AAB5;strokeColor=none;fontSize=17;fontColor=#FFFFFF;fontStyle=1;align=center;rounded=0;" vertex="1" parent="1">
          <mxGeometry x="2340" y="-220" width="200" height="60" as="geometry" />
        </mxCell>
        <mxCell id="D77NU6fG_84EsV_j1okC-300" value="&lt;font face=&quot;Comic Sans MS&quot; style=&quot;font-size: 15px&quot;&gt;Collect ecological environment data around the world, such as annual precipitation and solar radiation intensity.&lt;/font&gt;" style="shape=rect;fillColor=#B1DDF0;strokeColor=none;fontSize=12;html=1;whiteSpace=wrap;align=center;verticalAlign=top;spacing=5;rounded=0;" vertex="1" parent="1">
          <mxGeometry x="1540" y="-150" width="190" height="120" as="geometry" />
        </mxCell>
        <mxCell id="D77NU6fG_84EsV_j1okC-301" value="&lt;font face=&quot;Comic Sans MS&quot; style=&quot;font-size: 15px&quot;&gt;Collect plant categories and associated local policies for Amazon Forest, Great Bear Rainforest and Daintree Rainforest&lt;/font&gt;" style="shape=rect;fillColor=#B1DDF0;strokeColor=none;fontSize=12;html=1;whiteSpace=wrap;align=center;verticalAlign=top;spacing=5;rounded=0;" vertex="1" parent="1">
          <mxGeometry x="1540" y="10" width="190" height="120" as="geometry" />
        </mxCell>
        <mxCell id="D77NU6fG_84EsV_j1okC-302" value="&lt;font face=&quot;Comic Sans MS&quot; style=&quot;font-size: 15px&quot;&gt;Perform ARIMA time series forecast on the above data, and take the centennial median for data simplification&lt;/font&gt;" style="shape=rect;fillColor=#B1DDF0;strokeColor=none;fontSize=12;html=1;whiteSpace=wrap;align=center;verticalAlign=top;spacing=5;rounded=0;" vertex="1" parent="1">
          <mxGeometry x="1540" y="170" width="190" height="120" as="geometry" />
        </mxCell>
        <mxCell id="D77NU6fG_84EsV_j1okC-303" value="&lt;div&gt;&lt;span style=&quot;font-size: 15px ; font-family: &amp;#34;comic sans ms&amp;#34;&quot;&gt;Identify primary sources of carbon sequestration:&lt;/span&gt;&lt;/div&gt;&lt;div&gt;&lt;span style=&quot;font-family: &amp;#34;comic sans ms&amp;#34; ; font-size: 15px&quot;&gt;plants, plant products and water&lt;/span&gt;&lt;/div&gt;" style="shape=rect;fillColor=#FCE7CD;strokeColor=none;fontSize=12;html=1;whiteSpace=wrap;align=center;verticalAlign=middle;spacing=5;rounded=0;labelBorderColor=none;labelPosition=center;verticalLabelPosition=middle;" vertex="1" parent="1">
          <mxGeometry x="1740" y="-150" width="190" height="120" as="geometry" />
        </mxCell>
        <mxCell id="D77NU6fG_84EsV_j1okC-304" value="&lt;font style=&quot;font-size: 15px&quot; face=&quot;Comic Sans MS&quot;&gt;Fitting carbon sequestration models with historical data&lt;/font&gt;" style="shape=rect;fillColor=#FCE7CD;strokeColor=none;fontSize=12;html=1;whiteSpace=wrap;align=center;verticalAlign=middle;spacing=5;rounded=0;labelPosition=center;verticalLabelPosition=middle;" vertex="1" parent="1">
          <mxGeometry x="1740" y="10" width="190" height="120" as="geometry" />
        </mxCell>
        <mxCell id="D77NU6fG_84EsV_j1okC-305" value="&lt;font style=&quot;font-size: 15px&quot; face=&quot;Comic Sans MS&quot;&gt;Integrate a continuous function to get the total amount of carbon sequestered over time&lt;/font&gt;" style="shape=rect;fillColor=#FCE7CD;strokeColor=none;fontSize=12;html=1;whiteSpace=wrap;align=center;verticalAlign=middle;spacing=5;rounded=0;labelPosition=center;verticalLabelPosition=middle;" vertex="1" parent="1">
          <mxGeometry x="1740" y="170" width="190" height="120" as="geometry" />
        </mxCell>
        <mxCell id="D77NU6fG_84EsV_j1okC-306" value="&lt;font face=&quot;Comic Sans MS&quot; style=&quot;font-size: 15px&quot;&gt;Determine the framework and related variables of the forest management plan&lt;/font&gt;" style="shape=rect;fillColor=#FAD9D5;strokeColor=none;fontSize=12;html=1;whiteSpace=wrap;align=center;verticalAlign=middle;spacing=5;rounded=0;labelPosition=center;verticalLabelPosition=middle;" vertex="1" parent="1">
          <mxGeometry x="1940" y="-150" width="190" height="120" as="geometry" />
        </mxCell>
        <mxCell id="D77NU6fG_84EsV_j1okC-307" value="&lt;font style=&quot;font-size: 15px&quot;&gt;Determine the objective function and constraints of the optimization plan&lt;/font&gt;" style="shape=rect;fillColor=#FAD9D5;strokeColor=none;fontSize=12;html=1;whiteSpace=wrap;align=center;verticalAlign=middle;spacing=5;rounded=0;labelPosition=center;verticalLabelPosition=middle;fontFamily=Comic Sans MS;" vertex="1" parent="1">
          <mxGeometry x="1940" y="10" width="190" height="120" as="geometry" />
        </mxCell>
        <mxCell id="D77NU6fG_84EsV_j1okC-308" value="&lt;font face=&quot;Comic Sans MS&quot; style=&quot;font-size: 15px&quot;&gt;Use MATLAB to verify the feasibility of the model (here we do not give the specific process due to space reasons)&lt;/font&gt;" style="shape=rect;fillColor=#FAD9D5;strokeColor=none;fontSize=12;html=1;whiteSpace=wrap;align=center;verticalAlign=middle;spacing=5;rounded=0;labelPosition=center;verticalLabelPosition=middle;" vertex="1" parent="1">
          <mxGeometry x="1940" y="170" width="190" height="120" as="geometry" />
        </mxCell>
        <mxCell id="D77NU6fG_84EsV_j1okC-309" value="&lt;div style=&quot;text-align: left&quot;&gt;&lt;ul style=&quot;text-align: center ; font-size: 15px&quot;&gt;&lt;li style=&quot;text-align: left&quot;&gt;&lt;font face=&quot;Comic Sans MS&quot;&gt;Climate Value&lt;/font&gt;&lt;/li&gt;&lt;li style=&quot;text-align: left&quot;&gt;&lt;font face=&quot;Comic Sans MS&quot;&gt;Economic Value&lt;/font&gt;&lt;/li&gt;&lt;li style=&quot;text-align: left&quot;&gt;&lt;font face=&quot;Comic Sans MS&quot;&gt;Cultural Value&lt;/font&gt;&lt;/li&gt;&lt;li style=&quot;text-align: left&quot;&gt;&lt;font face=&quot;Comic Sans MS&quot;&gt;Ecological Value&lt;/font&gt;&lt;/li&gt;&lt;li style=&quot;text-align: left&quot;&gt;&lt;font face=&quot;Comic Sans MS&quot;&gt;Environment Value&amp;nbsp;&amp;nbsp;&lt;/font&gt;&lt;/li&gt;&lt;/ul&gt;&lt;/div&gt;" style="shape=rect;fillColor=#BAC8D3;strokeColor=none;fontSize=12;html=1;whiteSpace=wrap;align=center;verticalAlign=middle;spacing=5;rounded=0;labelPosition=center;verticalLabelPosition=middle;" vertex="1" parent="1">
          <mxGeometry x="2140" y="-150" width="190" height="120" as="geometry" />
        </mxCell>
        <mxCell id="D77NU6fG_84EsV_j1okC-310" value="&lt;font style=&quot;font-size: 15px&quot; face=&quot;Comic Sans MS&quot;&gt;Calculate the scores for the above five dimensions and construct the AHP evaluation matrix&lt;/font&gt;" style="shape=rect;fillColor=#BAC8D3;strokeColor=none;fontSize=12;html=1;whiteSpace=wrap;align=center;verticalAlign=middle;spacing=5;rounded=0;labelPosition=center;verticalLabelPosition=middle;" vertex="1" parent="1">
          <mxGeometry x="2140" y="10" width="190" height="120" as="geometry" />
        </mxCell>
        <mxCell id="D77NU6fG_84EsV_j1okC-311" value="&lt;font style=&quot;font-size: 15px&quot;&gt;Solve the optimization problem with the highest score as the objective function&lt;/font&gt;" style="shape=rect;fillColor=#BAC8D3;strokeColor=none;fontSize=12;html=1;whiteSpace=wrap;align=center;verticalAlign=middle;spacing=5;rounded=0;labelPosition=center;verticalLabelPosition=middle;fontFamily=Comic Sans MS;" vertex="1" parent="1">
          <mxGeometry x="2140" y="170" width="190" height="120" as="geometry" />
        </mxCell>
        <mxCell id="D77NU6fG_84EsV_j1okC-312" value="&lt;font face=&quot;Comic Sans MS&quot; style=&quot;font-size: 15px&quot;&gt;Give a rough analysis of the three forests we selected&lt;/font&gt;" style="shape=rect;fillColor=#B0E3E6;strokeColor=none;fontSize=12;html=1;whiteSpace=wrap;align=center;verticalAlign=middle;spacing=5;rounded=0;labelPosition=center;verticalLabelPosition=middle;" vertex="1" parent="1">
          <mxGeometry x="2340" y="-150" width="190" height="120" as="geometry" />
        </mxCell>
        <mxCell id="D77NU6fG_84EsV_j1okC-313" value="&lt;font style=&quot;font-size: 15px&quot; face=&quot;Comic Sans MS&quot;&gt;Solve and analyze the results of each model of the Black Forest, and then give a transition plan&lt;/font&gt;" style="shape=rect;fillColor=#B0E3E6;strokeColor=none;fontSize=12;html=1;whiteSpace=wrap;align=center;verticalAlign=middle;spacing=5;rounded=0;labelPosition=center;verticalLabelPosition=middle;" vertex="1" parent="1">
          <mxGeometry x="2340" y="10" width="190" height="120" as="geometry" />
        </mxCell>
        <mxCell id="D77NU6fG_84EsV_j1okC-314" value="&lt;font style=&quot;font-size: 15px&quot; face=&quot;Comic Sans MS&quot;&gt;Sensitivity analysis and nontechnical newspaper&lt;/font&gt;" style="shape=rect;fillColor=#B0E3E6;strokeColor=none;fontSize=12;html=1;whiteSpace=wrap;align=center;verticalAlign=middle;spacing=5;rounded=0;labelPosition=center;verticalLabelPosition=middle;" vertex="1" parent="1">
          <mxGeometry x="2340" y="170" width="190" height="120" as="geometry" />
        </mxCell>
        <mxCell id="D77NU6fG_84EsV_j1okC-325" value="" style="html=1;shadow=0;dashed=0;align=center;verticalAlign=middle;shape=mxgraph.arrows2.arrow;dy=0.6;dx=40;direction=south;notch=0;fontFamily=Comic Sans MS;fontSize=15;fillColor=#B1DDF0;strokeColor=#6c8ebf;" vertex="1" parent="1">
          <mxGeometry x="1620" y="-20" width="30" height="20" as="geometry" />
        </mxCell>
        <mxCell id="D77NU6fG_84EsV_j1okC-326" value="" style="html=1;shadow=0;dashed=0;align=center;verticalAlign=middle;shape=mxgraph.arrows2.arrow;dy=0.6;dx=40;direction=south;notch=0;fontFamily=Comic Sans MS;fontSize=15;fillColor=#B1DDF0;strokeColor=#6c8ebf;" vertex="1" parent="1">
          <mxGeometry x="1620" y="140" width="30" height="20" as="geometry" />
        </mxCell>
        <mxCell id="D77NU6fG_84EsV_j1okC-327" value="" style="html=1;shadow=0;dashed=0;align=center;verticalAlign=middle;shape=mxgraph.arrows2.arrow;dy=0.6;dx=40;direction=south;notch=0;fontFamily=Comic Sans MS;fontSize=15;fillColor=#FCE7CD;strokeColor=#6c8ebf;" vertex="1" parent="1">
          <mxGeometry x="1820" y="-20" width="30" height="20" as="geometry" />
        </mxCell>
        <mxCell id="D77NU6fG_84EsV_j1okC-328" value="" style="html=1;shadow=0;dashed=0;align=center;verticalAlign=middle;shape=mxgraph.arrows2.arrow;dy=0.6;dx=40;direction=south;notch=0;fontFamily=Comic Sans MS;fontSize=15;fillColor=#FCE7CD;strokeColor=#6c8ebf;" vertex="1" parent="1">
          <mxGeometry x="1820" y="140" width="30" height="20" as="geometry" />
        </mxCell>
        <mxCell id="D77NU6fG_84EsV_j1okC-329" value="" style="html=1;shadow=0;dashed=0;align=center;verticalAlign=middle;shape=mxgraph.arrows2.arrow;dy=0.6;dx=40;direction=south;notch=0;fontFamily=Comic Sans MS;fontSize=15;fillColor=#FCE7CD;strokeColor=#6c8ebf;" vertex="1" parent="1">
          <mxGeometry x="2020" y="-20" width="30" height="20" as="geometry" />
        </mxCell>
        <mxCell id="D77NU6fG_84EsV_j1okC-330" value="" style="html=1;shadow=0;dashed=0;align=center;verticalAlign=middle;shape=mxgraph.arrows2.arrow;dy=0.6;dx=40;direction=south;notch=0;fontFamily=Comic Sans MS;fontSize=15;fillColor=#FCE7CD;strokeColor=#6c8ebf;" vertex="1" parent="1">
          <mxGeometry x="2020" y="140" width="30" height="20" as="geometry" />
        </mxCell>
        <mxCell id="D77NU6fG_84EsV_j1okC-331" value="" style="html=1;shadow=0;dashed=0;align=center;verticalAlign=middle;shape=mxgraph.arrows2.arrow;dy=0.6;dx=40;direction=south;notch=0;fontFamily=Comic Sans MS;fontSize=15;fillColor=#BAC8D3;strokeColor=#6c8ebf;" vertex="1" parent="1">
          <mxGeometry x="2220" y="-20" width="30" height="20" as="geometry" />
        </mxCell>
        <mxCell id="D77NU6fG_84EsV_j1okC-332" value="" style="html=1;shadow=0;dashed=0;align=center;verticalAlign=middle;shape=mxgraph.arrows2.arrow;dy=0.6;dx=40;direction=south;notch=0;fontFamily=Comic Sans MS;fontSize=15;fillColor=#BAC8D3;strokeColor=#6c8ebf;" vertex="1" parent="1">
          <mxGeometry x="2220" y="140" width="30" height="20" as="geometry" />
        </mxCell>
        <mxCell id="D77NU6fG_84EsV_j1okC-333" value="" style="html=1;shadow=0;dashed=0;align=center;verticalAlign=middle;shape=mxgraph.arrows2.arrow;dy=0.6;dx=40;direction=south;notch=0;fontFamily=Comic Sans MS;fontSize=15;fillColor=#B0E3E6;strokeColor=#6c8ebf;" vertex="1" parent="1">
          <mxGeometry x="2420" y="-20" width="30" height="20" as="geometry" />
        </mxCell>
        <mxCell id="D77NU6fG_84EsV_j1okC-334" value="" style="html=1;shadow=0;dashed=0;align=center;verticalAlign=middle;shape=mxgraph.arrows2.arrow;dy=0.6;dx=40;direction=south;notch=0;fontFamily=Comic Sans MS;fontSize=15;fillColor=#B0E3E6;strokeColor=#6c8ebf;" vertex="1" parent="1">
          <mxGeometry x="2420" y="140" width="30" height="20" as="geometry" />
        </mxCell>
      </root>
    </mxGraphModel>
  </diagram>
</mxfile>
